<svg xmlns="http://www.w3.org/2000/svg" viewBox="0 0 720 180" role="img" aria-labelledby="title desc">
  <title id="title">ipaShip wordmark dark variant</title>
  <desc id="desc">Dark background ipaShip logo lockup with logomark, product name, and App Store Compliance Auditor descriptor.</desc>
  <defs>
    <linearGradient id="tile" x1="18" y1="16" x2="150" y2="164" gradientUnits="userSpaceOnUse">
      <stop offset="0" stop-color="#a855f7"/>
      <stop offset="0.48" stop-color="#3b82f6"/>
      <stop offset="1" stop-color="#9be15d"/>
    </linearGradient>
  </defs>
  <rect width="720" height="180" rx="28" fill="#050606"/>
  <rect x="24" y="24" width="132" height="132" rx="31" fill="url(#tile)"/>
  <path d="M90 42 129 58v31c0 26-15 45-39 56-24-11-39-30-39-56V58l39-16Z" fill="#f4f0e8"/>
  <path d="M65 88c13-7 30-8 50-5M68 103c15-5 30-4 47 3" fill="none" stroke="#3b82f6" stroke-width="6" stroke-linecap="round"/>
  <circle cx="65" cy="88" r="5" fill="#050606"/>
  <circle cx="115" cy="83" r="5" fill="#050606"/>
  <circle cx="68" cy="103" r="5" fill="#050606"/>
  <circle cx="115" cy="106" r="5" fill="#050606"/>
  <path d="m75 99 11 11 24-27" fill="none" stroke="#9be15d" stroke-width="8" stroke-linecap="round" stroke-linejoin="round"/>
  <text x="185" y="88" font-family="Inter, ui-sans-serif, system-ui, -apple-system, BlinkMacSystemFont, Segoe UI, sans-serif" font-size="58" font-weight="900" letter-spacing="-2" fill="#f4f0e8">ipaShip</text>
  <text x="188" y="123" font-family="Inter, ui-sans-serif, system-ui, -apple-system, BlinkMacSystemFont, Segoe UI, sans-serif" font-size="17" font-weight="800" letter-spacing="2.6" fill="#9be15d">APP STORE COMPLIANCE AUDITOR</text>
  <path d="M188 141h166" stroke="#3b82f6" stroke-width="4" stroke-linecap="round"/>
</svg>
