<svg xmlns="http://www.w3.org/2000/svg" viewBox="0 0 256 256" role="img" aria-labelledby="title desc">
  <title id="title">ipaShip logomark</title>
  <desc id="desc">Rounded app tile containing a security shield, launch trail, and compliance check.</desc>
  <defs>
    <linearGradient id="tile" x1="24" y1="16" x2="224" y2="236" gradientUnits="userSpaceOnUse">
      <stop offset="0" stop-color="#a855f7"/>
      <stop offset="0.48" stop-color="#3b82f6"/>
      <stop offset="1" stop-color="#9be15d"/>
    </linearGradient>
    <linearGradient id="shield" x1="70" y1="52" x2="182" y2="196" gradientUnits="userSpaceOnUse">
      <stop offset="0" stop-color="#ffffff"/>
      <stop offset="1" stop-color="#dff7ff"/>
    </linearGradient>
    <filter id="shadow" x="-20%" y="-20%" width="140%" height="140%">
      <feDropShadow dx="0" dy="16" stdDeviation="16" flood-color="#061213" flood-opacity="0.22"/>
    </filter>
  </defs>
  <rect x="16" y="16" width="224" height="224" rx="52" fill="url(#tile)"/>
  <path d="M60 184c38-3 61-20 76-51 7-14 13-29 25-42 10-10 24-17 43-19-5 17-14 31-26 43-13 13-28 21-43 28-31 15-52 36-60 68-9-8-14-17-15-27Z" fill="#050606" opacity="0.16"/>
  <g filter="url(#shadow)">
    <path d="M128 44 194 70v51c0 43-25 75-66 92-41-17-66-49-66-92V70l66-26Z" fill="url(#shield)"/>
    <path d="M128 61 177 80v41c0 32-18 56-49 70-31-14-49-38-49-70V80l49-19Z" fill="#050606" opacity="0.08"/>
  </g>
  <path d="M87 119c21-11 49-13 82-8" fill="none" stroke="#3b82f6" stroke-width="10" stroke-linecap="round"/>
  <path d="M92 143c24-8 49-7 77 4" fill="none" stroke="#a855f7" stroke-width="10" stroke-linecap="round"/>
  <circle cx="92" cy="119" r="8" fill="#050606"/>
  <circle cx="169" cy="111" r="8" fill="#050606"/>
  <circle cx="92" cy="143" r="8" fill="#050606"/>
  <circle cx="169" cy="147" r="8" fill="#050606"/>
  <path d="m105 137 18 18 37-43" fill="none" stroke="#9be15d" stroke-width="14" stroke-linecap="round" stroke-linejoin="round"/>
</svg>
