<svg width="256" height="256" viewBox="0 0 256 256" fill="none" xmlns="http://www.w3.org/2000/svg" role="img" aria-labelledby="title desc">
  <title id="title">Gracias AI dark logomark</title>
  <desc id="desc">A dark-background app tile containing a shield, neural nodes, and a compliance checkmark.</desc>
  <defs>
    <linearGradient id="tile" x1="36" y1="24" x2="220" y2="232" gradientUnits="userSpaceOnUse">
      <stop stop-color="#a855f7"/>
      <stop offset="1" stop-color="#3b82f6"/>
    </linearGradient>
    <filter id="glow" x="18" y="18" width="220" height="220" color-interpolation-filters="sRGB" filterUnits="userSpaceOnUse">
      <feDropShadow dx="0" dy="18" stdDeviation="18" flood-color="#3b82f6" flood-opacity=".28"/>
    </filter>
  </defs>

  <rect width="256" height="256" rx="56" fill="#0f172a"/>
  <rect x="24" y="24" width="208" height="208" rx="52" fill="url(#tile)" filter="url(#glow)"/>
  <path d="M128 47 184 67v45c0 39-21 73-56 96-35-23-56-57-56-96V67l56-20Z" fill="#111827"/>
  <path d="M128 47v161c35-23 56-57 56-96V67l-56-20Z" fill="#172554" opacity=".78"/>

  <path d="M91 92h74" stroke="#60a5fa" stroke-width="8" stroke-linecap="round" opacity=".85"/>
  <path d="M91 118h74" stroke="#c084fc" stroke-width="8" stroke-linecap="round" opacity=".85"/>
  <path d="M91 144h74" stroke="#60a5fa" stroke-width="8" stroke-linecap="round" opacity=".85"/>

  <circle cx="96" cy="92" r="8" fill="#c084fc"/>
  <circle cx="160" cy="92" r="8" fill="#93c5fd"/>
  <circle cx="128" cy="118" r="9" fill="#f5f3ff"/>
  <circle cx="96" cy="144" r="8" fill="#93c5fd"/>
  <circle cx="160" cy="144" r="8" fill="#c084fc"/>

  <path d="m103 162 18 18 36-43" stroke="#4ade80" stroke-width="13" stroke-linecap="round" stroke-linejoin="round"/>
  <path d="M128 48 184 68v44c0 39-21 73-56 96-35-23-56-57-56-96V68l56-20Z" stroke="#e0e7ff" stroke-width="6" stroke-linejoin="round" opacity=".65"/>
</svg>
