<svg width="1120" height="720" viewBox="0 0 1120 720" fill="none" xmlns="http://www.w3.org/2000/svg" role="img" aria-labelledby="title desc">
  <title id="title">Gracias AI logo preview</title>
  <desc id="desc">Preview sheet showing the Gracias AI logo package on light and dark backgrounds.</desc>
  <defs>
    <linearGradient id="tile" x1="174" y1="106" x2="326" y2="274" gradientUnits="userSpaceOnUse">
      <stop stop-color="#a855f7"/>
      <stop offset="0.56" stop-color="#7c5cf4"/>
      <stop offset="1" stop-color="#3b82f6"/>
    </linearGradient>
    <linearGradient id="accent" x1="447" y1="157" x2="534" y2="197" gradientUnits="userSpaceOnUse">
      <stop stop-color="#a855f7"/>
      <stop offset="1" stop-color="#3b82f6"/>
    </linearGradient>
  </defs>
  <rect width="1120" height="720" rx="36" fill="#f8fafc"/>
  <rect x="56" y="56" width="1008" height="286" rx="28" fill="#ffffff" stroke="#e4e7ec"/>
  <rect x="56" y="378" width="1008" height="286" rx="28" fill="#0b1220"/>
  <g transform="translate(128 102)">
    <rect x="18" y="14" width="126" height="132" rx="32" fill="url(#tile)"/>
    <path d="M81 36L113 48V75C113 96 100 114 81 123C62 114 49 96 49 75V48L81 36Z" fill="#ffffff" fill-opacity="0.97"/>
    <path d="M66 77L77 88L98 65" stroke="#ffffff" stroke-width="8" stroke-linecap="round" stroke-linejoin="round"/>
    <path d="M66 77L77 88L98 65" stroke="#3b82f6" stroke-width="5" stroke-linecap="round" stroke-linejoin="round"/>
    <path d="M65 56L80 66L96 56" stroke="#a855f7" stroke-width="4" stroke-linecap="round" stroke-linejoin="round"/>
    <path d="M65 56L63 73M96 56L99 73M80 66V84" stroke="#3b82f6" stroke-width="3.5" stroke-linecap="round" stroke-linejoin="round" opacity="0.82"/>
    <circle cx="65" cy="56" r="4.8" fill="#a855f7" stroke="#ffffff" stroke-width="2.5"/>
    <circle cx="96" cy="56" r="4.8" fill="#3b82f6" stroke="#ffffff" stroke-width="2.5"/>
    <circle cx="80" cy="66" r="4.8" fill="#815df5" stroke="#ffffff" stroke-width="2.5"/>
    <text x="172" y="79" fill="#101828" font-family="-apple-system, BlinkMacSystemFont, 'SF Pro Display', 'Segoe UI', sans-serif" font-size="46" font-weight="760" letter-spacing="-1.6">Gracias</text>
    <text x="338" y="79" fill="url(#accent)" font-family="-apple-system, BlinkMacSystemFont, 'SF Pro Display', 'Segoe UI', sans-serif" font-size="46" font-weight="760" letter-spacing="-1.6">AI</text>
    <text x="174" y="108" fill="#475467" font-family="-apple-system, BlinkMacSystemFont, 'SF Pro Text', 'Segoe UI', sans-serif" font-size="15" font-weight="560" letter-spacing="2.1">APP STORE COMPLIANCE AUDITOR</text>
  </g>
  <g transform="translate(128 424)">
    <rect x="18" y="14" width="126" height="132" rx="32" fill="url(#tile)"/>
    <rect x="22" y="18" width="118" height="124" rx="28" stroke="#ffffff" stroke-opacity="0.2" stroke-width="1.5"/>
    <path d="M81 36L113 48V75C113 96 100 114 81 123C62 114 49 96 49 75V48L81 36Z" fill="#ffffff" fill-opacity="0.98"/>
    <path d="M66 77L77 88L98 65" stroke="#ffffff" stroke-width="8" stroke-linecap="round" stroke-linejoin="round"/>
    <path d="M66 77L77 88L98 65" stroke="#3b82f6" stroke-width="5" stroke-linecap="round" stroke-linejoin="round"/>
    <path d="M65 56L80 66L96 56" stroke="#a855f7" stroke-width="4" stroke-linecap="round" stroke-linejoin="round"/>
    <path d="M65 56L63 73M96 56L99 73M80 66V84" stroke="#3b82f6" stroke-width="3.5" stroke-linecap="round" stroke-linejoin="round" opacity="0.84"/>
    <circle cx="65" cy="56" r="4.8" fill="#a855f7" stroke="#ffffff" stroke-width="2.5"/>
    <circle cx="96" cy="56" r="4.8" fill="#3b82f6" stroke="#ffffff" stroke-width="2.5"/>
    <circle cx="80" cy="66" r="4.8" fill="#815df5" stroke="#ffffff" stroke-width="2.5"/>
    <text x="172" y="79" fill="#ffffff" font-family="-apple-system, BlinkMacSystemFont, 'SF Pro Display', 'Segoe UI', sans-serif" font-size="46" font-weight="760" letter-spacing="-1.6">Gracias</text>
    <text x="338" y="79" fill="#8ab8ff" font-family="-apple-system, BlinkMacSystemFont, 'SF Pro Display', 'Segoe UI', sans-serif" font-size="46" font-weight="760" letter-spacing="-1.6">AI</text>
    <text x="174" y="108" fill="#cbd5e1" font-family="-apple-system, BlinkMacSystemFont, 'SF Pro Text', 'Segoe UI', sans-serif" font-size="15" font-weight="560" letter-spacing="2.1">APP STORE COMPLIANCE AUDITOR</text>
  </g>
  <text x="128" y="306" fill="#667085" font-family="-apple-system, BlinkMacSystemFont, 'SF Pro Text', 'Segoe UI', sans-serif" font-size="16" font-weight="560">Light background</text>
  <text x="128" y="628" fill="#94a3b8" font-family="-apple-system, BlinkMacSystemFont, 'SF Pro Text', 'Segoe UI', sans-serif" font-size="16" font-weight="560">Dark background</text>
</svg>
