<svg width="720" height="180" viewBox="0 0 720 180" fill="none" xmlns="http://www.w3.org/2000/svg" role="img" aria-labelledby="title desc">
  <title id="title">Gracias AI wordmark for dark backgrounds</title>
  <desc id="desc">Gracias AI wordmark with a compliance shield and neural app tile, tuned for dark backgrounds.</desc>
  <defs>
    <linearGradient id="tile" x1="32" y1="24" x2="148" y2="148" gradientUnits="userSpaceOnUse">
      <stop offset="0" stop-color="#c084fc"/>
      <stop offset="1" stop-color="#60a5fa"/>
    </linearGradient>
    <linearGradient id="shield" x1="62" y1="46" x2="118" y2="132" gradientUnits="userSpaceOnUse">
      <stop offset="0" stop-color="#ffffff"/>
      <stop offset="1" stop-color="#eef2ff"/>
    </linearGradient>
    <filter id="glow" x="6" y="4" width="172" height="172" color-interpolation-filters="sRGB" filterUnits="userSpaceOnUse">
      <feDropShadow dx="0" dy="0" stdDeviation="7" flood-color="#60a5fa" flood-opacity="0.3"/>
      <feDropShadow dx="0" dy="14" stdDeviation="14" flood-color="#a855f7" flood-opacity="0.16"/>
    </filter>
  </defs>
  <rect x="24" y="22" width="136" height="136" rx="34" fill="url(#tile)" filter="url(#glow)"/>
  <path d="M92 44L126 57V87C126 112 111.8 133 92 141C72.2 133 58 112 58 87V57L92 44Z" fill="url(#shield)" stroke="#ffffff" stroke-opacity="0.9" stroke-width="3" stroke-linejoin="round"/>
  <path d="M72 92L87 107L113 77" stroke="#1d4ed8" stroke-width="8" stroke-linecap="round" stroke-linejoin="round"/>
  <path d="M70 69H114M70 69L86 84M114 69L98 84M86 84H98M86 84L74 108M98 84L110 108" stroke="#7c3aed" stroke-width="3.5" stroke-linecap="round" opacity="0.74"/>
  <circle cx="70" cy="69" r="5.5" fill="#a855f7"/>
  <circle cx="114" cy="69" r="5.5" fill="#3b82f6"/>
  <circle cx="86" cy="84" r="5" fill="#8b5cf6"/>
  <circle cx="98" cy="84" r="5" fill="#60a5fa"/>
  <circle cx="74" cy="108" r="4.5" fill="#a855f7"/>
  <circle cx="110" cy="108" r="4.5" fill="#3b82f6"/>
  <text x="190" y="94" fill="#f8fafc" font-family="Inter, ui-sans-serif, system-ui, -apple-system, BlinkMacSystemFont, Segoe UI, sans-serif" font-size="56" font-weight="760" letter-spacing="0">Gracias</text>
  <text x="417" y="94" fill="#93c5fd" font-family="Inter, ui-sans-serif, system-ui, -apple-system, BlinkMacSystemFont, Segoe UI, sans-serif" font-size="56" font-weight="760" letter-spacing="0">AI</text>
  <text x="192" y="125" fill="#cbd5e1" font-family="Inter, ui-sans-serif, system-ui, -apple-system, BlinkMacSystemFont, Segoe UI, sans-serif" font-size="16" font-weight="650" letter-spacing="2.8">APP STORE COMPLIANCE AUDITOR</text>
</svg>
