<svg xmlns="http://www.w3.org/2000/svg" viewBox="0 0 200 60" fill="#76B900">
  <path d="M132.2 16.2v27.6h-6.8V16.2h6.8zM147.8 16.2v4.2h-9.8v7.2h8.6v4.1h-8.6v8h10.2v4.1H131V16.2h16.8zM184 16.2l-7.7 19.4-7.9-19.4h-7.5v27.6h6.2V26.6l7.2 17.2h4l7.2-17.2v17.2h6.2V16.2H184zM77.5 32.4c0 3.8-2.4 6.2-5.8 6.2s-5.8-2.4-5.8-6.2V16.2h-6.8v16.6c0 7.8 5.2 11.2 12.6 11.2s12.6-3.4 12.6-11.2V16.2H77.5v16.2zM29.8 16.2v4.5h12.6v23.1h6.8V16.2H29.8z"/>
  <path d="M10.6 10.2C4.8 10.2 0 14.9 0 20.7v18.6c0 5.8 4.8 10.5 10.6 10.5h29.4V10.2H10.6z"/>
</svg>
